<svg xmlns="http://www.w3.org/2000/svg" version="1.1" viewBox="18 0 3228 512.33"><path d="M 3129 59 L 3129 118 3187.500 118 L 3246 118 3246 59 L 3246 0 3187.500 0 L 3129 0 3129 59 M 19 453.163 L 19 512.326 62.664 511.663 C 86.679 511.298, 113.229 511, 121.664 511 L 137 511 137 452.500 L 137 394 78 394 L 19 394 19 453.163" stroke="none" fill="#ea4333" fill-rule="evenodd"/><path d="M 482.244 29.256 L 453 58.513 453 255.013 L 453 451.513 482.756 481.256 L 512.512 511 633.256 511 L 754 511 754 452.163 L 754 393.325 712.750 392.664 C 690.063 392.300, 648.888 392.002, 621.250 392.001 L 571 392 571 354 L 571 316 635.500 316 L 700 316 700 257 L 700 198 635.500 198 L 571 198 571 157.846 L 571 117.693 662.250 118.096 L 753.500 118.500 753.758 59.250 L 754.016 0 632.752 0 L 511.487 0 482.244 29.256 M 2227.244 29.256 L 2198 58.513 2198 255.013 L 2198 451.513 2227.756 481.256 L 2257.512 511 2378.256 511 L 2499 511 2499 452.163 L 2499 393.325 2457.750 392.664 C 2435.063 392.300, 2393.887 392.002, 2366.250 392.001 L 2316 392 2316 354 L 2316 316 2380.500 316 L 2445 316 2445 257 L 2445 198 2380.500 198 L 2316 198 2316 157.846 L 2316 117.693 2407.250 118.096 L 2498.500 118.500 2498.758 59.250 L 2499.016 0 2377.752 0 L 2256.487 0 2227.244 29.256 M 2606.241 29.258 L 2576.996 58.517 2577.248 283.508 L 2577.500 508.500 2636.750 508.758 L 2696 509.016 2696 313.508 L 2696 118 2776 118 L 2856 118 2856 59 L 2856 0 2745.744 0 L 2635.487 0 2606.241 29.258 M 2915.025 121.750 L 2915.050 243.500 2967.996 307.500 L 3020.941 371.500 3021.221 441 L 3021.500 510.500 3080.750 510.758 L 3140 511.016 3140 441.636 L 3140 372.256 3193 308.094 L 3246 243.932 3246 180.966 L 3246 118 3187.508 118 L 3129.016 118 3128.750 58.750 C 3128.569 18.467, 3128.398 31.671, 3128.216 100 L 3127.947 200.500 3104.724 228.699 C 3091.951 244.208, 3081.222 256.921, 3080.883 256.949 C 3080.543 256.977, 3069.630 244.119, 3056.633 228.376 L 3033 199.752 3033 99.876 L 3033 0 2974 0 L 2915 0 2915.025 121.750 M 18.242 256.250 C 18.375 396.637, 18.603 485.063, 18.750 452.750 L 19.016 394 78.008 394 L 137 394 137 452.485 L 137 510.971 106.750 511.251 C 90.112 511.404, 131.178 511.636, 198.006 511.765 L 319.513 512 348.756 482.744 L 378 453.487 378 256.487 L 378 59.487 348.744 30.244 L 319.487 1 168.744 1 L 18 1 18.242 256.250 M 820 226.756 L 820 452.513 849.256 481.756 L 878.513 511 988.256 511 L 1098 511 1098 452 L 1098 393 1018 393 L 938 393 938 197 L 938 1 879 1 L 820 1 820 226.756 M 1155 256.500 L 1155 512 1214 512 L 1273 512 1273 414 L 1273 316 1325.500 316 L 1378 316 1378 414.008 L 1378 512.016 1437.250 511.758 L 1496.500 511.500 1496.500 257 L 1496.500 2.500 1437.250 2.242 L 1378 1.984 1378 99.992 L 1378 198 1325.500 198 L 1273 198 1273 99.500 L 1273 1 1214 1 L 1155 1 1155 256.500 M 1575 257 L 1575 512.016 1634.250 511.758 L 1693.500 511.500 1693.500 257 L 1693.500 2.500 1634.250 2.242 L 1575 1.984 1575 257 M 1777.012 183.742 L 1777.024 365.500 1837.110 438.250 L 1897.195 511 1942.916 511 L 1988.637 511 2048.786 438.250 L 2108.936 365.500 2108.968 183.750 L 2109 2 2049.500 2 L 1990 2 1990 162.477 L 1990 322.953 1966.842 350.977 C 1954.105 366.390, 1943.351 379, 1942.944 379 C 1942.536 379, 1931.809 366.428, 1919.105 351.062 L 1896.006 323.125 1895.753 162.812 L 1895.500 2.500 1836.250 2.242 L 1777 1.984 1777.012 183.742 M 137 255.722 L 137 392.738 140.750 393.358 C 142.813 393.699, 170.488 393.983, 202.250 393.989 L 260 394 260 257 L 260 120 206.151 120 C 176.534 120, 148.859 119.709, 144.651 119.353 L 137 118.707 137 255.722" stroke="none" fill="#241c23" fill-rule="evenodd"/></svg>